<?xml version="1.0" encoding="UTF-8"?>
<svg xmlns="http://www.w3.org/2000/svg" xmlns:xlink="http://www.w3.org/1999/xlink" width="900pt" height="300pt" viewBox="0 0 900 300" version="1.1">
<g id="surface1">
<path style=" stroke:none;fill-rule:nonzero;fill:rgb(76.5625%,83.59375%,26.268005%);fill-opacity:1;" d="M 850.261719 54.011719 C 859.5 53.988281 868.75 53.988281 878 54.019531 C 877.988281 105.679688 878.011719 157.339844 877.988281 209 C 868.738281 209 859.5 209.011719 850.25 208.988281 C 850.269531 157.328125 850.261719 105.671875 850.261719 54.011719 M 547.960938 63.898438 C 562.179688 59.25 577.800781 59.519531 592.070313 63.828125 C 605.621094 67.929688 617.699219 76.671875 625.710938 88.359375 C 630.089844 94.648438 633.230469 101.710938 635.558594 108.988281 C 625.5 109.011719 615.449219 109.019531 605.390625 108.980469 C 601.039063 100.320313 593.851563 92.96875 584.878906 89.160156 C 575.230469 85.019531 563.871094 84.878906 554.269531 89.25 C 542.5 94.609375 533.878906 105.550781 529.871094 117.691406 C 524.449219 133.480469 526.359375 151.640625 535.148438 165.859375 C 539.808594 173.371094 546.570313 179.71875 554.710938 183.300781 C 565.171875 187.898438 577.738281 187.210938 587.699219 181.628906 C 595.371094 177.5 601.441406 170.769531 605.320313 163.019531 C 615.308594 162.988281 625.308594 162.960938 635.300781 163.039063 C 631.078125 176.570313 623.148438 189.160156 611.78125 197.789063 C 597 209.371094 577.269531 213.46875 558.878906 210.832031 C 542.128906 208.378906 526.589844 199.199219 516.058594 185.988281 C 494.371094 159.21875 493.328125 118.089844 513.160156 90.019531 C 521.570313 77.890625 533.929688 68.53125 547.960938 63.898438 M 799.179688 111.878906 C 807.371094 101.71875 821.199219 97.28125 833.910156 99.429688 C 834.121094 108.429688 833.929688 117.429688 834.011719 126.429688 C 824.75 125.238281 813.910156 125.851563 807.199219 133.21875 C 800.328125 140.671875 800.359375 151.5 800.5 161.011719 C 800.511719 177 800.488281 192.988281 800.511719 208.980469 C 791.261719 209.011719 782.011719 209.011719 772.761719 208.988281 C 772.730469 173.160156 772.75 137.328125 772.75 101.511719 C 781.578125 101.5 790.410156 101.488281 799.25 101.511719 C 799.25 104.960938 799.269531 108.421875 799.179688 111.878906 M 651.5 101.511719 C 660.820313 101.488281 670.148438 101.511719 679.480469 101.5 C 679.519531 122.671875 679.488281 143.851563 679.488281 165.019531 C 679.5 171.789063 682.261719 179.089844 688.328125 182.640625 C 697.289063 187.640625 710.109375 185.671875 716.160156 177.03125 C 718.589844 173.53125 720.070313 169.308594 720 165.03125 C 720 143.851563 720 122.679688 720 101.511719 C 729.328125 101.5 738.671875 101.488281 748 101.511719 C 747.988281 137.339844 748.011719 173.171875 747.988281 208.988281 C 739.078125 209 730.160156 209.011719 721.25 208.988281 C 721.261719 205.96875 721.25 202.960938 721.28125 199.941406 C 714.488281 207.050781 704.980469 211.699219 695.050781 211.53125 C 683.53125 212.03125 671.671875 207.769531 663.800781 199.191406 C 655.191406 190.070313 651.679688 177.25 651.578125 164.949219 C 651.398438 143.800781 651.550781 122.660156 651.5 101.511719 "/>
<path style=" stroke:none;fill-rule:nonzero;fill:rgb(15.281677%,14.501953%,14.892578%);fill-opacity:1;" d="M 21.011719 64.25 C 39.71875 64.289063 58.429688 64.179688 77.140625 64.300781 C 92.75 64.648438 108.699219 69.921875 119.949219 81.050781 C 131.648438 92.210938 137.578125 108.148438 139.398438 123.949219 C 141.261719 141.921875 139.589844 160.839844 131.070313 177.050781 C 124.621094 189.210938 114 199.210938 101.128906 204.261719 C 93.808594 207.210938 85.941406 208.789063 78.050781 209 C 59.03125 209 40.019531 209 21 209 C 21 160.75 20.988281 112.5 21.011719 64.25 M 48.75 90.25 C 48.75 121.25 48.75 152.25 48.761719 183.25 C 58.210938 183.210938 67.660156 183.328125 77.109375 183.191406 C 86.890625 182.859375 96.832031 178.78125 102.789063 170.78125 C 110.871094 160.03125 112.640625 145.980469 112.230469 132.890625 C 111.761719 121.671875 109.398438 109.769531 101.851563 101.039063 C 95.511719 93.640625 85.570313 90.230469 76.011719 90.238281 C 66.929688 90.261719 57.839844 90.25 48.75 90.25 M 186.371094 103.5 C 198.351563 98.070313 212.300781 97.589844 224.859375 101.238281 C 238.5 105.148438 250.210938 115.101563 256.359375 127.871094 C 262.261719 139.679688 263.589844 153.238281 262.441406 166.261719 C 235.371094 166.261719 208.308594 166.230469 181.238281 166.269531 C 183.601563 174.570313 189.449219 182.121094 197.671875 185.230469 C 209.289063 190.019531 224.480469 186.078125 230.769531 174.75 C 240.660156 174.761719 250.550781 174.710938 260.441406 174.769531 C 256.710938 188.128906 247.328125 199.839844 234.769531 205.859375 C 221.148438 212.332031 204.921875 213.460938 190.601563 208.699219 C 176.230469 203.839844 164.171875 192.730469 158 178.890625 C 152.070313 165.859375 151.359375 150.558594 156.011719 137.019531 C 160.878906 122.269531 172.148438 109.769531 186.371094 103.5 M 194.078125 127.160156 C 188 130.738281 183.871094 136.898438 181.628906 143.488281 C 199.359375 143.519531 217.089844 143.480469 234.820313 143.511719 C 233.261719 138.261719 230.480469 133.25 226.21875 129.738281 C 217.46875 122.289063 203.878906 121.058594 194.078125 127.160156 M 399.96875 106.921875 C 412.769531 99.160156 428.390625 97.839844 442.988281 99.558594 C 452.289063 100.761719 461.699219 103.941406 468.609375 110.519531 C 475.421875 117.050781 478.988281 126.601563 478.769531 135.96875 C 478.71875 153.300781 478.78125 170.640625 478.738281 187.980469 C 478.640625 195.101563 479.78125 202.238281 482.019531 209 C 473.449219 208.988281 464.878906 209.011719 456.320313 208.988281 C 455.160156 205.917969 454.308594 202.730469 453.800781 199.488281 C 446.140625 207.050781 435.390625 210.628906 424.789063 211.101563 C 412 211.800781 398.320313 209.148438 388.210938 200.851563 C 380.601563 194.671875 376.550781 184.691406 377.21875 174.960938 C 377 165.738281 381.75 156.5 389.820313 151.878906 C 402.949219 143.941406 418.800781 144.390625 433.488281 142.238281 C 439.039063 141.21875 445.210938 140.488281 449.578125 136.570313 C 452.800781 133.820313 452.410156 128.398438 449.101563 125.878906 C 443.78125 121.558594 436.460938 121.03125 429.871094 121.300781 C 421.261719 121.878906 411.699219 126.019531 408.730469 134.78125 C 399.480469 134.710938 390.238281 134.769531 380.988281 134.738281 C 382.488281 123.109375 389.941406 112.800781 399.96875 106.921875 M 421.871094 165 C 416.851563 165.878906 411.339844 166.820313 407.550781 170.53125 C 404.328125 173.550781 404.371094 179.300781 407.820313 182.140625 C 413.371094 186.75 421.101563 186.761719 427.941406 186.398438 C 435.898438 185.78125 444.78125 183.710938 449.898438 177.03125 C 454.078125 171.441406 452.789063 164.089844 453 157.589844 C 443.558594 163.03125 432.398438 163.488281 421.871094 165 M 261.621094 101.511719 C 271.328125 101.5 281.03125 101.460938 290.738281 101.53125 C 299.671875 128.109375 308.539063 154.699219 317.390625 181.300781 C 326.21875 154.660156 335.25 128.089844 344.21875 101.488281 C 353.78125 101.519531 363.351563 101.449219 372.921875 101.53125 C 359.410156 137.359375 345.859375 173.160156 332.371094 208.988281 C 322.371094 209.011719 312.371094 209 302.371094 208.988281 C 288.800781 173.160156 275.148438 137.359375 261.621094 101.511719 M 165.488281 219.261719 C 195.828125 219.230469 226.160156 219.261719 256.5 219.25 C 256.511719 227.832031 256.5 236.410156 256.5 245 C 226.171875 245 195.828125 245 165.5 245 C 165.488281 236.417969 165.511719 227.839844 165.488281 219.261719 "/>
</g>
</svg>
